<?xml version="1.0" standalone="no"?>
<!DOCTYPE svg PUBLIC "-//W3C//DTD SVG 20010904//EN"
 "http://www.w3.org/TR/2001/REC-SVG-20010904/DTD/svg10.dtd">
<svg version="1.0" xmlns="http://www.w3.org/2000/svg"
 width="1920.000000pt" height="1200.000000pt" viewBox="0 0 1920.000000 1200.000000"
 preserveAspectRatio="xMidYMid meet">

<g transform="translate(0.000000,1200.000000) scale(0.100000,-0.100000)"
fill="#000000" stroke="none">
<path d="M17325 11971 c-27 -10 -124 -52 -215 -93 -91 -41 -223 -101 -295
-133 -181 -82 -939 -464 -943 -475 -2 -6 -10 -10 -17 -10 -7 0 -48 -20 -89
-45 -42 -25 -78 -45 -81 -45 -2 0 -63 -34 -136 -75 -72 -41 -135 -75 -140 -75
-4 0 -9 -4 -11 -8 -1 -4 -41 -30 -88 -56 -365 -208 -561 -355 -900 -676 -338
-321 -608 -531 -847 -661 -57 -31 -64 -33 -85 -20 -97 62 -175 74 -261 41 -75
-28 -226 -129 -412 -275 -141 -110 -332 -243 -400 -278 -17 -8 -69 -27 -115
-42 -169 -53 -203 -71 -315 -170 -89 -79 -101 -87 -305 -195 -96 -51 -197
-105 -225 -120 -27 -15 -104 -55 -170 -90 -66 -35 -128 -70 -137 -78 -10 -8
-18 -12 -18 -7 0 4 -6 3 -12 -3 -7 -5 -42 -25 -78 -44 -97 -53 -364 -200 -450
-248 -41 -23 -100 -56 -130 -73 -30 -16 -140 -82 -245 -145 -412 -249 -778
-509 -1030 -733 -52 -46 -58 -48 -130 -38 -184 26 -384 -86 -655 -364 -181
-187 -263 -341 -295 -556 -18 -117 -18 -164 -1 -261 l14 -75 -39 -60 c-21 -33
-69 -109 -106 -168 -88 -140 -90 -143 -279 -434 -294 -453 -421 -697 -474
-907 -18 -74 -21 -109 -18 -195 6 -130 32 -195 113 -280 53 -55 68 -65 175
-116 118 -56 339 -92 392 -64 25 14 33 6 18 -20 -8 -16 -8 -21 1 -21 12 0 509
252 676 343 56 30 129 74 162 96 33 23 62 41 64 41 10 0 577 349 782 481 54
35 60 37 67 20 5 -14 25 -21 85 -30 173 -26 380 -40 596 -40 126 0 231 -2 233
-4 3 -3 -35 -28 -83 -57 -165 -99 -286 -187 -518 -376 -229 -187 -303 -263
-408 -422 -105 -159 -167 -295 -221 -478 -62 -212 -93 -539 -75 -784 17 -225
19 -203 -21 -210 -74 -13 -126 -58 -250 -215 -118 -149 -172 -195 -254 -217
-56 -15 -135 -1 -214 37 -29 14 -54 25 -57 25 -3 0 -31 20 -62 44 -31 25 -61
42 -66 39 -6 -3 -7 -2 -4 4 8 13 -31 45 -45 37 -6 -4 -8 -3 -5 3 8 13 -35 51
-51 45 -7 -2 -11 2 -10 10 2 7 -3 12 -9 11 -7 -2 -12 1 -10 5 2 7 -59 72 -67
72 -2 0 -22 18 -46 40 -24 22 -52 40 -62 40 -11 0 -17 4 -14 9 7 11 -87 71
-110 71 -8 0 -13 4 -10 9 9 15 -106 44 -174 45 -150 1 -245 -65 -269 -187 -5
-29 -17 -90 -26 -137 -29 -153 -82 -283 -224 -557 l-53 -103 -191 0 c-175 0
-320 -8 -512 -26 -67 -7 -69 -6 -55 11 12 15 9 15 -15 -3 -22 -16 -61 -25
-155 -37 -69 -9 -172 -25 -230 -35 -57 -10 -106 -17 -109 -15 -12 12 209 97
284 110 74 12 226 20 234 12 14 -14 68 40 106 106 20 34 49 83 65 109 36 59
62 132 53 154 -5 15 -19 16 -117 11 -140 -8 -208 -28 -393 -115 -81 -38 -186
-82 -233 -97 -226 -74 -337 -157 -469 -350 -53 -79 -45 -75 -246 -110 -181
-31 -437 -50 -920 -68 -48 -2 -98 4 -92 10 12 11 -77 45 -119 45 -63 0 -152
-48 -189 -101 -26 -38 -41 -48 -125 -80 -109 -43 -158 -67 -237 -118 l-57 -36
-65 13 c-85 18 -170 16 -209 -4 -137 -71 -255 -414 -213 -619 l12 -57 49 0
c41 0 52 4 69 26 26 34 26 38 -4 128 -40 119 -27 289 30 411 21 44 65 52 190
34 l92 -12 59 45 c33 25 88 60 124 78 88 44 113 62 101 69 -6 4 9 8 32 8 70 3
112 29 152 94 33 52 44 60 102 84 48 19 74 24 101 19 39 -7 102 -40 102 -54 0
-4 10 -10 23 -14 41 -11 760 30 887 50 90 14 252 46 266 51 14 5 15 1 9 -25
-9 -43 7 -41 56 8 22 22 48 41 57 42 47 4 75 9 162 31 263 67 444 106 550 122
273 39 464 55 720 61 l245 5 -38 -33 c-39 -35 -96 -66 -317 -172 -190 -92
-268 -165 -358 -338 -103 -197 -80 -339 30 -180 29 42 33 55 33 117 0 58 6 80
30 129 17 32 42 68 57 81 33 28 348 198 355 191 3 -3 -11 -22 -30 -43 -80 -87
-257 -341 -257 -367 1 -16 50 44 84 101 46 75 189 263 243 317 53 53 140 116
194 139 36 15 192 127 204 147 19 30 -9 18 -57 -25 -48 -43 -142 -105 -160
-105 -4 0 6 20 23 45 38 56 133 248 187 375 43 102 93 287 112 410 14 98 35
140 85 167 99 56 225 52 345 -9 36 -18 67 -35 70 -39 3 -3 37 -29 75 -59 39
-29 83 -66 99 -82 15 -15 35 -28 43 -28 8 0 12 -4 9 -9 -3 -4 18 -28 46 -52
29 -24 68 -58 87 -75 20 -17 46 -34 59 -38 13 -5 22 -15 22 -27 0 -11 4 -17
10 -14 5 3 35 -8 66 -25 62 -34 154 -59 195 -53 23 3 28 -1 34 -29 13 -62 9
-103 -17 -158 -51 -111 -186 -259 -391 -430 -53 -44 -97 -86 -97 -91 0 -18 13
-8 138 99 281 240 414 424 399 552 -6 46 -5 47 31 61 20 8 40 15 43 17 11 5
29 -75 29 -130 0 -88 -43 -192 -117 -285 -37 -47 -45 -77 -12 -47 60 53 133
187 155 281 15 64 11 135 -10 193 -3 9 14 37 44 69 l49 54 12 -29 c6 -16 16
-60 22 -99 10 -68 5 -112 -28 -245 l-7 -25 21 23 c51 58 69 254 32 359 -21 61
-24 53 67 166 89 110 160 139 241 97 52 -26 71 -47 71 -77 0 -33 -64 -169
-123 -260 -46 -71 -51 -95 -10 -50 29 32 105 162 134 229 18 43 28 56 40 52 9
-2 22 2 29 11 10 12 9 21 -7 47 -17 29 -91 89 -125 100 -9 3 -1 19 23 45 20
22 39 46 42 54 5 11 8 10 17 -4 25 -39 37 11 44 173 19 435 61 730 136 953 22
64 24 77 11 77 -5 0 -13 -17 -19 -38 -5 -20 -22 -77 -36 -127 -56 -189 -98
-452 -127 -800 -7 -94 -15 -142 -20 -129 -30 83 -42 492 -20 669 21 159 75
345 136 465 14 27 25 55 25 62 0 25 115 183 190 262 106 111 397 348 600 488
196 135 307 188 425 204 78 10 195 40 250 63 72 31 115 54 115 63 0 5 5 8 10
8 6 0 21 9 33 21 71 66 194 88 572 99 186 5 335 15 393 24 222 38 484 103 455
113 -6 2 -42 -5 -80 -16 -202 -60 -484 -100 -723 -102 -198 -2 -351 -13 -446
-32 -35 -8 -64 -12 -64 -9 0 2 56 58 123 125 156 154 227 260 227 339 0 78
-126 237 -229 292 -68 35 -163 44 -300 27 -51 -7 -96 -9 -100 -6 -3 4 6 15 21
26 14 11 95 76 179 145 84 70 171 134 194 144 22 10 108 42 190 71 444 155
875 337 938 397 15 15 44 57 63 95 130 256 107 363 -93 426 -74 23 -226 51
-279 51 -18 0 -36 4 -39 10 -3 5 11 42 32 82 110 210 206 459 283 733 23 83
54 172 68 199 15 27 74 99 131 160 111 118 153 171 178 224 21 45 73 88 333
280 631 464 662 490 732 610 61 102 98 140 233 235 61 42 126 90 145 105 168
135 718 423 980 514 207 72 344 95 631 108 367 16 469 32 904 139 345 86 515
107 756 97 140 -5 158 -4 163 10 4 9 4 19 1 22 -10 10 -414 5 -495 -7 -89 -13
-269 -52 -550 -121 -285 -69 -425 -87 -860 -110 -249 -13 -379 -42 -624 -139
-145 -58 -516 -239 -516 -252 0 -5 -5 -9 -10 -9 -15 0 -157 -82 -271 -156 -54
-35 -106 -67 -116 -71 -16 -6 -109 -73 -218 -157 -22 -17 -44 -37 -49 -45 -5
-7 -23 -30 -41 -50 -17 -20 -49 -65 -70 -101 -66 -113 -107 -148 -600 -510
-414 -304 -443 -328 -477 -394 -30 -58 -77 -118 -166 -211 -130 -135 -168
-199 -213 -360 -54 -199 -80 -279 -134 -416 -48 -121 -156 -357 -198 -429 -8
-14 -25 -45 -38 -70 -79 -154 -276 -446 -413 -610 -120 -145 -136 -159 -188
-175 -27 -8 -62 -24 -78 -35 -41 -29 -121 -135 -123 -164 -1 -16 -31 -47 -97
-102 -178 -149 -490 -389 -790 -609 -84 -61 -330 -225 -339 -225 -4 0 -16 -9
-27 -21 -17 -19 -62 -50 -146 -102 -17 -11 -37 -15 -56 -11 -27 5 -37 -1 -94
-59 -62 -64 -155 -138 -218 -174 -18 -10 -40 -23 -49 -28 -72 -45 -226 -135
-271 -158 -30 -16 -89 -48 -130 -72 -92 -52 -234 -124 -315 -160 -32 -14 -67
-33 -76 -41 -13 -12 -22 -13 -38 -5 -41 22 -146 7 -181 -26 -13 -12 -13 -15 0
-23 8 -5 28 -10 43 -10 39 0 27 -14 -30 -35 -26 -10 -102 -44 -168 -76 -66
-31 -149 -69 -185 -84 -36 -15 -69 -31 -74 -36 -18 -17 -28 -9 -22 15 l6 24
-94 1 c-99 1 -147 8 -273 40 -97 24 -136 41 -195 83 -91 65 -138 143 -164 268
-14 71 -15 94 -5 148 37 198 138 410 367 763 147 228 194 298 205 304 6 4 19
26 28 49 10 22 35 63 55 90 21 26 72 101 113 165 42 64 103 152 137 196 75 97
96 130 96 149 0 8 17 36 38 63 20 26 50 67 65 91 45 69 158 212 168 212 5 0
22 24 39 54 63 111 303 381 512 576 438 409 1007 777 2083 1348 94 49 191 101
215 115 46 25 174 93 290 155 36 19 84 45 108 59 24 14 46 23 48 20 3 -2 -28
-49 -69 -103 -41 -55 -107 -148 -148 -209 -40 -60 -77 -114 -82 -120 -4 -5
-32 -44 -62 -85 -30 -41 -58 -80 -62 -85 -97 -125 -181 -215 -469 -502 -329
-328 -403 -410 -390 -431 14 -24 57 13 254 217 399 413 562 604 742 876 266
402 417 583 530 636 52 25 288 109 305 109 4 0 5 -17 2 -37 -5 -26 -3 -33 3
-23 5 8 10 29 10 45 0 24 7 35 32 50 18 10 73 47 123 82 49 34 91 58 93 53 9
-27 -159 -291 -302 -475 -69 -88 -86 -119 -57 -101 17 11 214 276 284 383 67
102 91 147 102 193 6 27 82 93 96 84 40 -25 -119 -274 -297 -464 -52 -55 -84
-96 -84 -106 0 -14 53 42 167 176 170 200 242 317 243 391 0 33 6 41 65 85 36
27 86 64 111 83 24 19 47 31 51 28 6 -7 -54 -98 -113 -172 -240 -300 -339
-423 -396 -490 -77 -90 -82 -119 -6 -35 110 121 437 538 511 650 20 30 43 65
52 77 24 34 135 83 188 83 57 0 97 -15 97 -35 0 -24 -41 -80 -133 -180 -164
-178 -170 -185 -155 -185 8 0 42 30 76 68 33 37 85 94 115 127 31 33 71 83 89
112 38 59 61 70 52 23 -4 -16 -3 -30 2 -30 17 0 204 99 277 146 92 61 289 206
347 258 25 22 122 113 215 201 452 429 559 517 835 687 163 100 496 293 640
371 47 25 119 64 160 86 97 53 765 387 850 425 36 16 97 44 135 62 107 50 351
157 442 195 45 19 83 37 83 42 0 11 -21 8 -75 -12z m-8264 -4917 c5 -3 -49
-67 -120 -142 -113 -120 -164 -177 -284 -321 -59 -71 -37 6 36 124 16 28 55
74 85 103 30 28 50 52 45 52 -16 0 -111 -105 -151 -168 -23 -35 -52 -94 -67
-131 -14 -37 -38 -86 -53 -109 -51 -77 -177 -241 -185 -242 -13 0 1 93 28 188
32 111 93 233 156 312 29 36 42 56 29 45 -35 -31 -105 -133 -143 -210 -43 -86
-83 -216 -97 -313 -6 -41 -16 -83 -23 -95 -12 -22 -12 -21 -15 6 -9 77 60 365
118 493 16 35 26 64 24 64 -10 0 -73 -147 -103 -243 -31 -97 -58 -229 -65
-319 -2 -25 -7 -51 -11 -58 -17 -27 -29 29 -33 157 -4 122 -3 139 22 217 14
46 42 107 61 135 48 72 136 163 152 157 7 -3 13 -1 13 4 0 5 27 38 60 73 99
106 257 205 362 227 42 9 142 5 159 -6z m3195 -225 c51 -6 98 -15 105 -20 21
-13 -16 -46 -79 -69 -96 -36 -260 -64 -250 -42 2 4 18 35 35 69 33 63 57 85
83 78 8 -2 56 -9 106 -16z m212 -51 c80 -28 81 -46 7 -93 -73 -47 -199 -94
-370 -139 -77 -20 -152 -40 -167 -45 -16 -5 -28 -6 -28 0 0 4 20 39 44 76 l44
68 108 23 c113 23 235 74 269 112 22 25 17 25 93 -2z m121 -93 c25 -53 26 -78
6 -95 -17 -14 -21 -35 -5 -25 25 15 -4 -59 -61 -157 -34 -58 -45 -68 -86 -84
-27 -10 -52 -21 -58 -25 -15 -11 -320 -112 -490 -162 -279 -84 -336 -99 -343
-93 -3 4 8 21 25 39 30 32 70 78 115 130 21 26 38 32 168 57 179 35 332 73
413 104 91 35 175 75 183 87 3 6 -7 4 -22 -4 -141 -71 -258 -106 -489 -146
-185 -33 -185 -33 -185 -22 0 17 111 166 128 173 9 4 90 27 178 52 215 59 355
115 429 171 33 25 63 45 66 45 4 0 16 -20 28 -45z m-1250 -1220 c71 -39 137
-104 182 -180 45 -75 53 -107 38 -154 -25 -78 -150 -222 -288 -333 -89 -72
-111 -82 -306 -145 l-150 -48 -155 1 c-179 1 -471 38 -502 64 -4 3 86 6 200 6
191 0 435 23 452 41 3 3 -13 3 -35 -1 -185 -29 -487 -30 -605 -1 -30 7 -83 16
-118 20 -35 4 -61 9 -58 12 3 3 83 7 178 9 240 5 431 22 578 50 68 14 127 28
130 31 3 3 -8 3 -25 -1 -138 -29 -316 -47 -479 -49 -99 -1 -197 1 -216 5 -19
4 -64 7 -99 7 -56 1 -62 3 -50 17 9 12 32 15 93 15 219 -2 548 36 734 85 83
23 73 29 -14 8 -157 -37 -252 -46 -482 -50 -177 -2 -232 0 -229 9 4 12 89 36
347 97 74 17 182 48 239 67 99 34 271 107 271 116 0 3 -39 -12 -88 -33 -125
-54 -297 -106 -466 -140 -168 -34 -186 -36 -186 -15 0 8 4 15 9 15 13 0 352
248 544 398 l108 84 87 13 c48 8 137 13 197 12 101 -2 114 -5 164 -32z m-293
-810 c-11 -8 -27 -15 -35 -15 -10 1 -7 6 9 15 33 19 50 18 26 0z m-186 -79 c0
-2 -9 -6 -20 -9 -11 -3 -18 -1 -14 4 5 9 34 13 34 5z m-2495 -2734 c-3 -3 -11
0 -18 7 -9 10 -8 11 6 5 10 -3 15 -9 12 -12z m-1777 -214 c4 -23 -51 -138 -81
-169 -13 -13 -35 -42 -49 -64 -41 -65 -48 -68 -150 -66 -50 1 -94 3 -97 6 -12
7 -126 -23 -209 -55 -42 -16 -111 -50 -152 -76 -54 -33 -103 -53 -173 -71 -54
-14 -100 -23 -103 -20 -6 6 52 61 119 112 74 57 131 83 232 110 123 32 269 89
376 148 84 46 157 103 145 114 -3 3 -20 -8 -38 -26 -33 -32 -188 -113 -288
-150 -30 -11 -100 -32 -155 -46 -164 -43 -246 -88 -372 -208 -63 -60 -127 -97
-142 -81 -14 14 56 119 106 160 54 44 161 100 238 124 45 14 212 94 355 169
65 34 123 56 185 70 197 43 248 47 253 19z"/>
<path d="M8693 6864 l-28 -25 33 22 c17 13 32 24 32 26 0 8 -11 1 -37 -23z"/>
<path d="M8629 6813 l-24 -28 28 24 c15 14 27 26 27 28 0 8 -8 1 -31 -24z"/>
<path d="M12539 6523 c-13 -16 -12 -17 4 -4 9 7 17 15 17 17 0 8 -8 3 -21 -13z"/>
<path d="M12490 6489 c-22 -18 -22 -19 -3 -10 12 6 25 16 28 21 9 15 3 12 -25
-11z"/>
<path d="M11064 5238 l-19 -23 23 19 c21 18 27 26 19 26 -2 0 -12 -10 -23 -22z"/>
<path d="M10999 5189 l-24 -20 28 17 c15 9 27 18 27 20 0 8 -8 4 -31 -17z"/>
<path d="M10982 4973 c-24 -8 -41 -17 -39 -19 4 -5 97 26 97 32 0 6 -11 4 -58
-13z"/>
<path d="M10898 4843 c7 -3 16 -2 19 1 4 3 -2 6 -13 5 -11 0 -14 -3 -6 -6z"/>
<path d="M10868 4733 c7 -3 16 -2 19 1 4 3 -2 6 -13 5 -11 0 -14 -3 -6 -6z"/>
<path d="M10828 4723 c7 -3 16 -2 19 1 4 3 -2 6 -13 5 -11 0 -14 -3 -6 -6z"/>
<path d="M17630 11973 c-14 -9 -27 -20 -30 -23 -3 -3 -43 -33 -90 -65 -47 -33
-86 -63 -88 -67 -2 -4 -8 -8 -12 -8 -16 0 -85 -52 -82 -62 1 -5 -2 -7 -7 -3
-6 3 -32 -9 -58 -28 -190 -132 -493 -297 -663 -362 -47 -18 -170 -54 -275 -80
-344 -85 -568 -172 -695 -270 -55 -42 -110 -107 -110 -129 0 -14 30 15 45 45
8 15 46 48 84 73 161 107 452 208 739 257 62 10 133 28 157 39 24 11 53 20 63
20 96 0 967 489 934 525 -4 5 -1 5 5 1 8 -4 29 5 50 21 43 32 123 113 123 125
0 15 -65 8 -90 -9z"/>
<path d="M17884 11982 c-19 -14 -72 -88 -76 -106 -2 -15 10 -23 62 -41 302
-103 439 -281 350 -455 -23 -46 -72 -71 -185 -96 -99 -22 -363 -24 -570 -3
-80 8 -249 14 -395 14 -281 0 -375 -12 -585 -76 -157 -47 -427 -189 -405 -212
3 -3 37 14 75 38 130 82 345 160 530 191 131 22 422 29 647 14 281 -18 277
-22 -57 -65 -231 -30 -256 -35 -373 -74 -116 -39 -303 -90 -552 -150 -265 -65
-421 -115 -459 -147 -41 -34 -39 -48 2 -24 85 50 481 156 827 221 58 11 130
28 160 39 46 17 100 21 340 30 157 5 410 10 562 10 l278 0 40 36 c22 20 57 59
77 86 28 39 34 54 26 67 -8 13 -4 24 22 52 84 93 142 240 132 329 -13 104 -88
209 -209 290 -58 38 -59 39 -156 39 -54 0 -102 -3 -108 -7z"/>
<path d="M18110 11053 c-93 -10 -372 -66 -425 -84 -33 -12 -71 -31 -85 -44
-54 -49 -163 -84 -286 -92 -102 -6 -147 4 -190 44 -27 25 -30 25 -118 19 -300
-23 -1299 -309 -1468 -421 -58 -38 -45 -48 20 -16 105 54 225 97 502 181 404
122 724 187 886 178 69 -3 76 -6 109 -39 46 -48 102 -63 213 -57 108 7 182 28
250 72 58 37 112 47 367 66 l140 11 43 42 c39 39 102 125 102 140 0 4 -6 6
-12 5 -7 0 -29 -3 -48 -5z"/>
<path d="M1368 10792 c-44 -46 -81 -94 -85 -111 -4 -17 -6 -726 -3 -1576 5
-1449 6 -1546 22 -1565 18 -20 21 -20 1674 -20 1082 0 1662 3 1674 10 10 5 28
23 39 39 l21 29 0 1573 c0 1445 -1 1573 -16 1590 -16 17 -62 18 -918 22 -795
2 -940 5 -1236 25 -396 26 -808 51 -975 59 l-120 6 -77 -81z m3284 -79 c17
-15 18 -78 18 -1580 l0 -1563 -1654 0 c-1818 0 -1685 -5 -1686 58 -3 176 -1
3014 1 3017 2 1 119 8 259 14 140 7 314 16 385 21 72 5 189 12 260 16 72 3
229 12 350 19 141 8 548 13 1134 14 838 1 916 0 933 -16z"/>
<path d="M3043 10307 c-7 -7 -29 -28 -48 -47 -20 -19 -52 -59 -72 -89 -32 -47
-35 -58 -30 -100 3 -25 8 -53 12 -62 4 -12 -6 -24 -39 -43 -26 -15 -52 -26
-59 -25 -6 1 -108 1 -225 0 l-214 -1 -62 -62 c-61 -62 -124 -153 -113 -165 3
-3 48 0 99 6 51 7 111 14 133 16 22 2 81 10 130 17 163 22 155 25 188 -62 76
-197 75 -404 -2 -500 -43 -54 -82 -120 -71 -120 33 0 182 181 225 275 46 101
59 171 61 320 2 109 5 141 15 143 8 1 57 8 110 15 l97 13 -5 -56 c-4 -44 16
-356 41 -638 5 -53 -6 -60 -38 -25 l-25 27 -23 -21 c-13 -12 -31 -35 -40 -51
-16 -27 -16 -30 1 -58 16 -27 110 -84 138 -84 5 0 24 14 42 32 65 63 64 56 73
478 5 212 13 394 17 405 7 18 26 24 112 37 57 10 120 20 139 23 79 14 147 38
173 63 31 29 36 47 9 33 -21 -11 -244 -31 -352 -31 -71 0 -79 2 -82 20 -3 20
-4 20 -38 -4 -29 -20 -52 -25 -139 -31 -97 -6 -103 -5 -96 12 17 43 23 75 20
106 -2 17 -9 80 -16 140 -12 105 -19 121 -46 94z"/>
<path d="M2562 9594 c-18 -14 -76 -76 -129 -138 -52 -61 -135 -151 -183 -201
-79 -81 -130 -147 -130 -168 0 -38 208 157 353 332 96 114 130 165 125 185 -2
13 -9 11 -36 -10z"/>
<path d="M3639 9593 c-62 -52 -149 -162 -149 -189 0 -7 64 -27 145 -47 173
-42 272 -85 320 -139 42 -45 54 -43 108 24 72 90 74 119 13 181 -45 44 -159
109 -251 142 -27 10 -54 22 -60 25 -5 4 -22 10 -37 14 -14 3 -33 8 -41 11 -8
4 -29 -7 -48 -22z"/>
<path d="M3982 9013 c-96 -96 -136 -173 -94 -186 24 -8 115 -61 197 -115 69
-46 135 -105 153 -138 9 -16 12 -15 40 5 31 22 112 134 112 155 0 24 -59 102
-121 162 -71 67 -206 174 -220 174 -5 0 -35 -26 -67 -57z"/>
<path d="M2930 8947 c-46 -43 -101 -110 -123 -152 -18 -34 -18 -35 7 -97 86
-215 230 -418 342 -484 100 -59 656 -119 782 -85 50 14 110 63 128 106 18 44
-8 166 -53 243 l-25 44 -24 -23 -23 -22 20 -28 c27 -38 68 -165 69 -210 0 -44
-10 -49 -90 -49 -98 0 -234 29 -523 110 -43 13 -95 34 -116 49 -114 77 -217
278 -317 619 -5 19 -16 15 -54 -21z"/>
<path d="M3409 8870 c-15 -11 -46 -46 -70 -77 -24 -32 -47 -60 -51 -63 -4 -3
-12 -19 -18 -35 -11 -29 -9 -31 107 -142 65 -61 124 -112 131 -113 17 0 119
108 137 147 10 20 15 62 15 122 0 100 -8 111 -50 66 -13 -14 -28 -25 -34 -25
-6 0 -36 32 -66 70 -29 39 -59 70 -65 70 -5 0 -22 -9 -36 -20z"/>
<path d="M2434 8818 c-31 -22 -115 -123 -139 -168 -7 -14 -34 -91 -60 -171
-40 -127 -52 -153 -90 -195 -46 -53 -82 -111 -73 -120 21 -20 129 82 193 181
72 113 214 452 203 485 -2 6 -17 0 -34 -12z"/>
<path d="M17743 10809 c-143 -17 -324 -74 -309 -98 3 -5 -2 -8 -11 -7 -9 0
-35 -22 -57 -51 -41 -51 -42 -52 -98 -52 -71 -1 -157 30 -198 71 -29 29 -35
30 -88 25 -75 -7 -224 -50 -457 -132 -286 -100 -453 -164 -520 -198 -80 -40
-78 -39 -415 -107 -655 -131 -929 -208 -1215 -345 -105 -50 -144 -75 -202
-129 -77 -72 -133 -164 -133 -220 l0 -30 20 20 c11 11 23 33 26 50 8 44 41
107 71 136 60 56 194 138 294 181 252 108 678 221 1154 307 200 36 316 67 389
104 38 19 131 57 205 85 392 143 771 220 771 157 0 -36 124 -102 200 -106 96
-5 100 -4 171 69 l66 68 90 12 c49 6 121 11 159 11 l70 0 46 48 c45 46 98 119
98 134 0 9 -28 9 -127 -3z"/>
<path d="M13275 9582 c-6 -4 -19 -23 -29 -42 -34 -62 -169 -223 -429 -514 -15
-17 -32 -39 -38 -48 -16 -29 7 -21 33 11 13 16 75 86 139 157 138 155 279 329
315 390 26 44 29 60 9 46z"/>
<path d="M12371 8943 c-10 -26 -10 -27 4 -9 8 11 15 23 15 28 0 15 -7 8 -19
-19z"/>
<path d="M12265 8783 c-55 -70 -216 -254 -363 -413 -33 -36 -55 -67 -49 -69
21 -8 389 408 441 497 6 11 17 29 24 41 23 38 8 22 -53 -56z"/>
<path d="M11829 8493 c-13 -16 -12 -17 4 -4 9 7 17 15 17 17 0 8 -8 3 -21 -13z"/>
<path d="M11803 8458 c-15 -20 -25 -38 -20 -38 3 0 12 11 21 25 17 26 16 35
-1 13z"/>
<path d="M11746 8382 l-19 -27 24 22 c12 12 21 24 18 27 -2 2 -13 -8 -23 -22z"/>
<path d="M11704 8328 l-19 -23 23 19 c21 18 27 26 19 26 -2 0 -12 -10 -23 -22z"/>
<path d="M11604 8198 c-101 -132 -237 -301 -286 -355 -21 -24 -38 -47 -38 -53
0 -18 43 20 83 74 69 95 122 164 217 287 97 125 114 149 107 149 -2 0 -39 -46
-83 -102z"/>
<path d="M18384 5008 c-98 -8 -149 -21 -232 -59 -114 -51 -165 -99 -532 -498
-148 -160 -222 -222 -333 -278 -121 -60 -185 -126 -323 -334 -131 -197 -201
-270 -356 -372 -65 -42 -120 -77 -123 -77 -2 0 -64 -36 -136 -80 -301 -183
-378 -265 -463 -492 -13 -36 -32 -79 -42 -95 -9 -15 -144 -154 -298 -308 -507
-505 -589 -625 -670 -990 -25 -108 -77 -205 -154 -283 -72 -73 -139 -121 -346
-247 -83 -51 -138 -91 -155 -115 -25 -34 -34 -54 -94 -191 -23 -52 -30 -59
-101 -97 -117 -63 -353 -167 -431 -190 -47 -14 -114 -22 -202 -26 -251 -11
-462 -51 -649 -121 -90 -34 -140 -64 -187 -113 l-39 -40 101 -1 c87 -2 112 2
174 24 111 41 337 93 497 116 207 30 327 80 664 276 157 92 188 125 237 258
33 90 48 106 171 180 258 156 369 248 454 377 62 93 79 136 120 300 70 285
145 391 600 848 167 168 316 323 331 345 14 21 45 87 68 146 50 126 88 183
164 242 60 47 234 160 341 221 36 20 73 42 82 49 29 20 29 2 0 -64 -48 -110
-68 -141 -167 -259 -157 -188 -202 -310 -161 -442 29 -92 77 -133 264 -228
138 -71 195 -116 253 -202 36 -53 51 -82 104 -203 24 -54 65 -198 89 -312 l24
-112 -61 -83 c-309 -419 -553 -831 -772 -1307 -41 -90 -75 -166 -75 -168 0 -1
24 -3 53 -3 l54 0 21 47 c12 27 48 116 81 198 192 485 407 888 643 1206 l99
134 -6 56 c-23 215 -142 534 -242 649 -57 64 -100 94 -249 169 -195 98 -251
172 -242 320 5 91 36 150 155 292 93 111 165 226 192 312 9 28 30 50 79 87
122 92 199 177 317 355 127 190 180 247 275 296 142 72 189 115 597 546 169
178 223 219 339 259 113 39 330 45 564 15 91 -12 182 -22 202 -23 21 -2 38 -7
38 -12 0 -5 -29 -38 -65 -75 -141 -145 -338 -414 -434 -594 -102 -192 -210
-452 -308 -741 -74 -220 -167 -561 -159 -583 4 -10 -11 -30 -42 -58 -27 -24
-61 -63 -78 -87 -16 -24 -31 -45 -34 -48 -3 -3 -18 -30 -33 -60 -16 -30 -44
-85 -63 -122 -56 -107 -62 -164 -34 -307 27 -143 28 -140 -79 -225 -49 -39
-76 -70 -95 -107 -44 -89 -34 -154 57 -376 67 -161 91 -254 84 -328 -10 -99
-51 -242 -117 -406 -35 -85 -87 -214 -117 -287 -29 -73 -61 -161 -70 -195 -17
-65 -23 -233 -10 -279 l7 -28 100 0 99 0 31 44 c16 25 30 49 30 55 0 6 -15 31
-34 55 -53 70 -69 132 -64 245 4 88 12 117 86 336 106 313 125 387 126 505 1
95 1 95 -62 245 -35 83 -69 164 -77 180 -30 67 -47 149 -43 203 4 46 10 59 34
79 110 91 139 120 161 170 l24 53 -21 107 c-29 152 -22 196 52 342 73 142 91
167 176 234 178 142 592 325 1048 462 80 24 134 55 134 76 0 17 -390 -112
-631 -210 -144 -58 -339 -153 -419 -204 -30 -20 -56 -34 -58 -32 -2 2 20 32
48 67 69 84 75 97 95 213 45 261 146 635 231 857 108 278 225 462 463 726 86
96 104 107 188 116 l61 7 7 -68 c10 -113 12 -113 14 2 l1 110 -142 0 c-79 0
-206 8 -283 17 -168 21 -282 26 -391 16z"/>
<path d="M12540 4820 c-491 -139 -794 -232 -1270 -390 -599 -200 -835 -307
-1027 -469 -61 -51 -182 -173 -230 -231 -15 -19 31 24 102 96 72 72 166 156
210 186 218 151 596 298 1475 573 178 55 524 157 753 221 37 10 67 22 67 26 0
10 -2 10 -80 -12z"/>
<path d="M12690 4753 c-129 -13 -449 -81 -492 -104 -34 -18 -18 -27 26 -14 35
11 78 11 221 2 193 -11 336 -1 364 28 13 13 12 14 -17 6 -56 -17 -336 -17
-362 -1 -8 5 -12 11 -9 14 13 13 222 48 296 49 46 1 83 5 83 10 0 4 -8 7 -17
7 -10 0 -27 2 -38 4 -11 2 -36 2 -55 -1z"/>
<path d="M11298 4313 c7 -3 16 -2 19 1 4 3 -2 6 -13 5 -11 0 -14 -3 -6 -6z"/>
<path d="M11045 4250 c-289 -88 -689 -251 -726 -296 -16 -20 -21 -22 106 39
217 105 466 201 690 267 61 18 112 34 114 36 12 11 -40 -2 -184 -46z"/>
<path d="M11280 4193 c-208 -11 -342 -51 -610 -184 -261 -129 -542 -349 -662
-519 -137 -193 -237 -475 -288 -806 -34 -226 -50 -587 -27 -611 8 -8 59 38 90
82 21 29 22 37 19 280 -4 272 8 416 53 615 51 229 147 424 272 556 116 122
421 325 684 456 243 120 622 148 982 72 67 -14 142 -30 166 -35 25 -5 85 -23
134 -40 50 -16 94 -26 98 -22 19 19 -320 114 -471 132 -265 31 -286 33 -440
24z"/>
<path d="M11055 4093 c-94 -11 -209 -38 -228 -53 -32 -27 -19 -30 48 -15 123
29 344 48 490 42 77 -3 154 -10 170 -15 35 -11 52 -8 -245 -42 -378 -44 -563
-92 -750 -194 -54 -30 -103 -69 -177 -144 -57 -56 -103 -110 -103 -118 0 -12
9 -8 38 13 179 140 460 187 832 141 216 -26 201 -24 350 -57 74 -17 150 -31
168 -31 57 0 90 28 128 108 26 55 45 79 75 100 22 15 54 39 71 53 28 23 30 29
21 55 -8 24 -21 33 -77 53 -51 18 -70 21 -75 12 -6 -9 -22 -9 -70 2 -65 15
-102 36 -65 38 44 1 -35 21 -156 40 -115 17 -351 24 -445 12z"/>
<path d="M11688 4038 c5 -5 16 -8 23 -6 8 3 3 7 -10 11 -17 4 -21 3 -13 -5z"/>
<path d="M12544 3828 l-19 -23 23 19 c21 18 27 26 19 26 -2 0 -12 -10 -23 -22z"/>
<path d="M12445 3724 c-141 -127 -343 -260 -540 -355 -69 -33 -125 -64 -125
-69 0 -11 103 36 214 98 189 104 347 216 471 334 56 53 40 47 -20 -8z"/>
<path d="M9949 3657 c-14 -18 -56 -77 -94 -132 -37 -55 -78 -111 -90 -125 -37
-41 -153 -283 -191 -396 -56 -166 -74 -277 -81 -475 -5 -160 6 -323 24 -352 7
-11 78 57 104 100 19 30 19 35 5 84 -43 145 -42 439 4 632 48 208 165 446 312
635 49 63 55 88 7 29z"/>
<path d="M10834 3444 c-18 -14 -18 -15 4 -4 12 6 22 13 22 15 0 8 -5 6 -26
-11z"/>
<path d="M10466 3405 c-11 -8 -17 -17 -14 -20 2 -3 13 4 23 15 21 23 18 25 -9
5z"/>
<path d="M10730 3378 c-168 -118 -597 -455 -635 -499 l-20 -24 20 15 c11 8 22
18 25 21 14 15 371 298 481 380 179 134 185 138 179 138 -3 0 -25 -14 -50 -31z"/>
<path d="M10167 3113 c-147 -146 -267 -268 -267 -270 0 -3 3 -3 8 -1 10 4 537
538 531 538 -2 0 -125 -120 -272 -267z"/>
<path d="M11015 3367 c-56 -22 -157 -78 -279 -154 -187 -117 -466 -304 -466
-314 0 -4 75 43 168 105 284 191 487 314 602 364 34 14 13 13 -25 -1z"/>
<path d="M11098 3373 c7 -3 16 -2 19 1 4 3 -2 6 -13 5 -11 0 -14 -3 -6 -6z"/>
<path d="M11795 3218 c-207 -87 -452 -172 -825 -288 -152 -48 -219 -74 -335
-133 -44 -22 -98 -49 -120 -60 -61 -30 -243 -145 -310 -196 -140 -106 -308
-299 -366 -421 -47 -100 -57 -148 -62 -305 -6 -158 -14 -219 -48 -350 -23 -86
-114 -336 -145 -397 -27 -52 -113 -176 -129 -185 -13 -8 -94 -106 -131 -158
-40 -58 -72 -130 -109 -250 -67 -219 -86 -269 -131 -352 -25 -45 -49 -85 -54
-88 -16 -10 -11 -35 6 -35 21 0 45 29 104 128 67 110 93 178 140 357 52 196
92 276 183 368 40 40 98 88 131 107 73 43 179 147 231 226 56 84 104 201 126
307 34 164 23 420 -27 639 -18 80 -21 74 78 196 76 93 193 191 338 282 280
177 382 226 650 310 356 112 423 135 640 217 124 47 232 92 240 99 21 20 5 16
-75 -18z m-1908 -1195 c4 -49 8 -176 7 -283 0 -161 -4 -211 -22 -287 -47 -204
-134 -349 -229 -377 l-22 -7 24 55 c43 97 123 348 145 455 13 64 24 171 29
275 6 125 13 182 26 214 9 23 21 42 25 42 5 0 12 -39 17 -87z"/>
<path d="M11290 3150 c-33 -14 -60 -17 -101 -13 -69 7 -146 -10 -334 -72 -97
-32 -292 -108 -313 -122 -39 -24 -17 -26 35 -3 26 12 109 44 183 71 74 27 145
54 158 59 59 25 195 53 267 54 58 1 92 8 125 23 55 26 42 28 -20 3z"/>
<path d="M9081 2023 c-5 -11 -5 -41 1 -78 10 -69 7 -281 -6 -307 -13 -29 11
-21 31 9 23 35 30 191 13 307 -12 86 -21 102 -39 69z"/>
<path d="M7794 1758 c-21 -41 -152 -225 -213 -298 -69 -82 -111 -124 -163
-158 -63 -43 -218 -240 -398 -507 -19 -27 -38 -53 -43 -56 -5 -4 -48 -17 -94
-29 -46 -13 -86 -26 -88 -30 -6 -9 101 15 165 38 8 2 22 6 30 7 8 1 31 6 50
10 19 5 40 8 47 7 6 -2 14 2 18 8 8 13 -40 13 -66 0 -10 -6 -19 -7 -19 -2 0
11 141 218 234 342 70 93 129 156 242 255 50 45 207 244 275 350 14 22 34 52
43 68 11 15 14 27 7 27 -6 0 -18 -15 -27 -32z"/>
<path d="M7879 1638 c-35 -65 -289 -390 -517 -661 -110 -130 -140 -173 -106
-149 29 21 363 427 474 577 25 33 47 62 50 65 15 14 122 163 126 175 9 24 -14
17 -27 -7z"/>
<path d="M8513 1603 c-101 -127 -264 -310 -449 -503 -151 -158 -188 -200 -180
-207 3 -3 23 12 43 33 354 374 633 689 633 715 0 16 -8 10 -47 -38z"/>
<path d="M8289 1603 c-13 -16 -12 -17 4 -4 16 13 21 21 13 21 -2 0 -10 -8 -17
-17z"/>
<path d="M8244 1548 c-16 -18 -45 -53 -64 -78 -49 -65 -241 -287 -364 -420
-97 -106 -121 -137 -97 -128 22 8 323 347 482 543 79 97 109 154 43 83z"/>
<path d="M7977 1468 c-29 -40 -73 -101 -98 -134 -85 -118 -225 -299 -316 -411
-51 -62 -93 -115 -93 -118 0 -3 6 -5 14 -5 8 0 30 22 49 49 20 27 43 58 51 68
94 111 411 539 438 591 27 51 12 38 -45 -40z"/>
<path d="M7363 803 c9 -2 23 -2 30 0 6 3 -1 5 -18 5 -16 0 -22 -2 -12 -5z"/>
<path d="M7279 795 c-3 -2 -40 -10 -82 -16 -42 -6 -77 -15 -77 -20 0 -9 30 -5
140 22 41 9 63 18 49 18 -14 1 -28 -1 -30 -4z"/>
<path d="M6758 663 c7 -3 16 -2 19 1 4 3 -2 6 -13 5 -11 0 -14 -3 -6 -6z"/>
</g>
</svg>
