<?xml version="1.0" standalone="no"?>
<!DOCTYPE svg PUBLIC "-//W3C//DTD SVG 20010904//EN"
 "http://www.w3.org/TR/2001/REC-SVG-20010904/DTD/svg10.dtd">
<svg version="1.0" xmlns="http://www.w3.org/2000/svg"
 width="660.000000pt" height="435.000000pt" viewBox="0 0 660.000000 435.000000"
 preserveAspectRatio="xMidYMid meet">

<g transform="translate(0.000000,435.000000) scale(0.100000,-0.100000)"
fill="#000000" stroke="none">
<path d="M1364 2786 l-34 -34 0 -556 0 -556 29 -32 29 -33 1922 0 1922 0 29
33 29 32 0 556 0 556 -34 34 -34 34 -1912 0 -1912 0 -34 -34z m2744 -248 l3
-78 -89 0 -89 0 -6 67 c-3 37 -3 73 0 80 4 10 26 13 92 11 l86 -3 3 -77z
m-1501 58 c4 -4 16 -52 48 -198 26 -123 41 -104 51 65 l9 142 85 3 c47 2 99 0
117 -3 l32 -6 -65 -185 c-35 -102 -64 -195 -64 -207 0 -12 29 -111 64 -220 35
-108 60 -199 56 -202 -4 -2 -44 -2 -89 2 l-81 6 -11 41 c-50 188 -66 239 -72
221 -3 -11 -16 -72 -28 -135 -13 -72 -28 -120 -38 -128 -11 -10 -38 -13 -94
-10 -42 3 -80 7 -83 11 -3 3 24 95 60 204 l66 198 -65 198 c-36 108 -65 202
-65 209 0 8 23 9 81 5 45 -4 84 -8 86 -11z m725 -5 c9 -8 36 -386 43 -607 l6
-181 -82 -7 c-44 -4 -83 -5 -85 -3 -3 2 -8 59 -11 126 l-6 121 -52 0 -52 0 -7
-77 c-4 -43 -9 -99 -13 -125 l-6 -48 -53 0 c-30 0 -54 1 -54 3 0 48 46 492 64
622 15 99 26 181 26 182 0 12 268 7 282 -6z m-1611 -183 l-4 -188 71 0 72 0
-5 43 c-2 23 -7 108 -10 190 l-5 147 49 0 50 0 5 -42 c3 -24 8 -137 11 -253 3
-115 8 -279 12 -362 l6 -153 -61 0 -60 0 -7 161 c-7 157 -8 161 -29 155 -11
-3 -38 -6 -58 -6 l-38 0 0 -155 0 -156 -87 3 -88 3 -6 180 c-3 99 -3 280 -1
403 l5 223 91 -3 91 -3 -4 -187z m532 182 l157 0 0 -110 0 -110 -115 0 -115 0
0 -42 c0 -24 -3 -53 -6 -65 -6 -23 -5 -23 84 -23 l91 0 7 -45 c3 -25 5 -48 2
-50 -2 -2 -41 -7 -86 -11 -93 -8 -89 -2 -76 -110 l7 -52 108 -7 109 -7 0 -84
0 -84 -112 0 c-62 0 -151 3 -197 7 l-84 6 7 361 c3 199 9 378 13 399 5 33 9
38 27 33 12 -3 92 -6 179 -6z m1360 -182 l-2 -188 70 0 69 0 -5 103 c-3 56 -7
142 -10 190 l-5 88 53 -3 52 -3 11 -310 c7 -170 12 -352 13 -402 l1 -93 -59 0
-58 0 -5 155 c-3 86 -7 157 -9 159 -2 2 -27 2 -55 -1 -48 -5 -52 -8 -58 -35
-3 -17 -6 -86 -6 -154 l0 -124 -84 0 c-47 0 -88 4 -91 10 -8 13 -8 778 0 791
4 6 43 9 93 7 l87 -3 -2 -187z m721 170 c3 -13 19 -160 37 -327 17 -168 34
-314 39 -325 12 -32 17 24 35 344 9 157 18 295 21 308 4 21 9 22 97 22 l93 0
-57 -352 c-32 -194 -64 -375 -72 -403 l-14 -50 -99 -7 c-54 -4 -102 -4 -106 0
-11 12 -150 781 -144 797 4 12 24 15 85 15 75 0 81 -1 85 -22z m736 5 c3 -2 5
-50 5 -106 l0 -102 -110 -3 c-72 -2 -112 -7 -117 -15 -4 -7 -8 -36 -8 -64 l0
-53 89 0 89 0 4 -49 3 -49 -50 -6 c-27 -3 -65 -6 -82 -6 l-33 0 0 -79 0 -79
115 -7 115 -7 0 -84 0 -84 -112 0 c-62 0 -151 3 -197 7 l-84 6 5 381 c3 210 8
388 12 396 5 13 33 14 179 12 94 -2 174 -6 177 -9z m-962 -471 c2 -224 0 -290
-10 -303 -10 -13 -28 -15 -90 -11 l-78 4 0 299 0 299 88 0 87 0 3 -288z"/>
<path d="M3107 2414 c-4 -4 -7 -63 -7 -131 l0 -123 50 0 50 0 0 83 c0 45 -6
102 -14 127 -11 39 -17 45 -42 48 -17 2 -33 0 -37 -4z"/>
</g>
</svg>
