<?xml version="1.0" standalone="no"?>
<!DOCTYPE svg PUBLIC "-//W3C//DTD SVG 20010904//EN"
 "http://www.w3.org/TR/2001/REC-SVG-20010904/DTD/svg10.dtd">
<svg version="1.0" xmlns="http://www.w3.org/2000/svg"
 width="438.000000pt" height="200.000000pt" viewBox="0 0 438.000000 200.000000"
 preserveAspectRatio="xMidYMid meet">

<g transform="translate(0.000000,200.000000) scale(0.100000,-0.100000)"
fill="#000000" stroke="none">
<path d="M1807 1849 c-95 -50 -157 -155 -157 -265 l0 -56 -35 31 c-45 39 -115
74 -180 90 -82 20 -287 12 -312 -12 -8 -9 52 -90 102 -136 67 -62 123 -84 227
-89 253 -13 417 131 421 368 2 97 -3 102 -66 69z m-9 -79 c-11 -27 -24 -50
-29 -50 -9 0 -25 49 -18 54 2 1 17 12 33 24 16 12 30 22 32 22 1 0 -6 -22 -18
-50z m48 -35 c-3 -12 -15 -25 -26 -28 -21 -5 -22 -10 18 83 9 21 16 -24 8 -55z
m-100 -78 c-3 -12 -10 -29 -16 -37 -8 -13 -11 -12 -25 5 -17 22 -13 68 7 92
10 12 14 10 26 -12 7 -15 11 -37 8 -48z m74 -17 c-12 -29 -37 -50 -59 -50 -18
0 15 62 40 76 31 16 34 11 19 -26z m-455 -27 c28 -31 33 -48 9 -39 -9 3 -20 6
-25 6 -12 0 -49 37 -49 50 0 20 40 9 65 -17z m-95 7 c0 -12 -17 -12 -45 0 -17
7 -15 9 13 9 17 1 32 -3 32 -9z m185 -6 c22 -5 95 -84 78 -84 -35 0 -86 26
-108 54 -29 38 -32 51 -9 42 9 -3 26 -9 39 -12z m-225 -28 c35 -13 35 -13 12
-25 -20 -11 -27 -10 -43 5 -19 17 -25 35 -11 33 4 0 23 -6 42 -13z m469 -4 c6
-12 5 -25 -5 -42 -13 -24 -13 -24 -14 18 0 46 4 52 19 24z m-90 -56 c14 -14
20 -26 15 -26 -12 0 -33 17 -59 49 -20 24 -20 24 0 13 11 -5 31 -22 44 -36z
m-225 14 c15 -5 9 -11 -32 -28 -61 -26 -61 -26 -91 -5 l-24 16 34 18 c33 18
64 18 113 -1z m386 17 c0 -2 -11 -14 -25 -27 -27 -25 -35 -12 -9 14 14 14 34
22 34 13z m-279 -49 c22 -6 39 -14 39 -18 0 -9 -98 -50 -120 -50 -9 0 -32 5
-51 12 l-34 12 60 28 c70 33 58 31 106 16z m127 -49 c-8 -5 -35 -11 -59 -14
l-44 -5 39 19 c37 18 96 18 64 0z"/>
<path d="M1686 1415 c-3 -8 4 -43 15 -78 11 -34 30 -116 43 -182 30 -148 55
-216 106 -288 67 -93 210 -175 390 -223 36 -10 69 -21 73 -25 5 -3 -23 -19
-63 -34 -53 -20 -70 -31 -68 -44 3 -14 22 -16 152 -17 l150 0 55 37 c52 34 63
37 151 42 113 8 272 45 376 88 164 68 236 198 165 296 -49 68 -173 113 -312
113 -35 0 -80 9 -120 24 -99 37 -202 50 -347 43 -154 -8 -182 -14 -182 -37 0
-14 12 -18 61 -23 43 -4 64 -11 74 -24 12 -16 10 -19 -23 -25 -222 -42 -485
79 -579 266 -19 39 -42 79 -51 89 -19 21 -58 22 -66 2z m87 -95 c65 -137 228
-252 407 -287 75 -15 92 -15 223 0 371 44 602 48 701 12 64 -23 126 -85 126
-124 0 -65 -57 -143 -133 -182 -96 -50 -266 -94 -430 -113 l-49 -6 31 36 c57
64 21 56 -51 -12 -85 -80 -140 -108 -187 -94 -21 6 -53 5 -87 -1 -91 -17 -94
-6 -10 34 44 21 75 41 70 46 -5 4 -55 20 -112 34 -215 55 -380 163 -441 290
-20 39 -42 116 -61 208 -16 80 -37 165 -45 189 -8 23 -15 47 -15 52 0 24 35
-22 63 -82z m913 -191 c32 -6 64 -14 69 -17 10 -7 -194 -30 -273 -31 -35 -1
-45 3 -49 19 -3 10 -17 23 -32 29 -38 14 209 14 285 0z"/>
<path d="M1525 450 c-5 -16 -15 -20 -46 -20 -27 0 -39 -4 -39 -14 0 -8 -3 -21
-6 -30 -5 -13 1 -16 25 -16 17 0 31 -2 31 -4 0 -2 -16 -41 -35 -86 -19 -45
-35 -88 -35 -95 0 -10 40 -30 45 -22 1 1 19 43 40 94 21 51 42 90 46 88 3 -3
21 -45 39 -95 24 -67 37 -90 47 -86 8 4 19 6 24 6 15 0 11 21 -21 103 -36 93
-36 97 -10 97 11 0 20 6 20 14 0 8 3 21 6 30 5 13 -1 16 -30 16 -23 0 -43 7
-56 20 -11 11 -24 20 -29 20 -5 0 -13 -9 -16 -20z"/>
<path d="M300 310 l0 -140 30 0 c29 0 30 1 30 49 0 28 4 52 8 55 5 3 19 -13
32 -36 42 -75 75 -94 114 -65 25 19 12 70 -16 61 -21 -6 -36 8 -64 60 -16 28
-15 29 30 75 l47 47 -21 19 c-20 18 -21 18 -75 -35 l-55 -54 0 52 c0 51 -1 52
-30 52 l-30 0 0 -140z"/>
<path d="M572 443 c-22 -4 -23 -6 -20 -136 l3 -132 115 0 115 0 3 111 c1 61
-2 123 -7 138 -10 25 -14 26 -85 26 -50 0 -76 -4 -79 -12 -4 -10 -6 -10 -6 0
-1 6 -4 11 -8 11 -5 -1 -18 -4 -31 -6z m158 -133 l0 -80 -60 0 -60 0 0 80 0
80 60 0 60 0 0 -80z"/>
<path d="M833 443 c-10 -3 -13 -41 -13 -139 l0 -134 30 0 30 0 0 140 c0 127
-2 140 -17 139 -10 0 -24 -3 -30 -6z"/>
<path d="M926 434 c-11 -30 -6 -44 17 -45 l22 0 -22 -11 c-53 -25 -35 -145 29
-191 37 -27 107 -26 148 3 29 20 29 22 14 45 l-16 25 -25 -20 c-69 -54 -145
13 -119 105 11 39 13 40 60 43 27 2 54 -2 59 -7 6 -6 22 -11 35 -11 19 0 22 4
17 23 -13 45 -41 57 -130 57 -66 0 -84 -3 -89 -16z"/>
<path d="M1178 420 c-4 -25 -1 -30 16 -31 12 0 15 -3 9 -6 -8 -3 -13 -23 -13
-52 0 -26 -5 -52 -11 -58 -8 -8 -8 -17 0 -31 6 -11 11 -32 11 -46 0 -21 5 -26
25 -26 22 0 25 4 25 35 0 24 6 37 19 45 16 8 22 4 39 -24 24 -41 66 -71 87
-62 17 6 21 56 5 56 -6 0 -22 11 -36 25 l-25 26 31 29 c29 27 31 33 28 87 l-3
58 -101 3 -102 3 -4 -31z m152 -56 c0 -19 -8 -28 -35 -40 -50 -21 -55 -18 -55
26 l0 40 45 0 c42 0 45 -2 45 -26z"/>
<path d="M1700 420 c0 -24 4 -30 23 -31 12 0 16 -3 10 -6 -9 -3 -13 -36 -13
-115 0 -96 2 -109 16 -104 9 3 22 6 30 6 10 0 14 15 14 59 l0 59 35 -8 c32 -7
36 -6 41 15 3 13 3 28 0 33 -9 14 -65 20 -70 8 -2 -6 -5 4 -5 22 -1 32 -1 32
48 32 47 0 49 1 53 30 l5 30 -94 0 -93 0 0 -30z"/>
<path d="M1916 434 c-14 -35 -7 -44 37 -45 23 0 36 -3 30 -6 -9 -3 -13 -31
-13 -92 0 -93 14 -131 49 -131 21 0 36 39 21 54 -6 6 -10 47 -10 93 l0 83 35
0 c32 0 35 2 35 30 l0 30 -89 0 c-72 0 -90 -3 -95 -16z"/>
<path d="M2256 434 c-11 -29 -6 -44 16 -44 19 0 20 -2 6 -12 -12 -10 -17 -39
-21 -116 l-6 -102 27 6 c36 9 42 20 42 84 1 49 2 53 14 37 11 -14 25 -17 68
-15 l53 3 3 73 c2 46 -2 79 -9 88 -18 21 -185 20 -193 -2z m144 -74 c0 -28 -2
-30 -40 -30 -38 0 -40 2 -40 30 0 28 2 30 40 30 38 0 40 -2 40 -30z"/>
<path d="M2496 428 c-9 -35 -8 -38 17 -39 12 0 16 -3 10 -6 -7 -2 -15 -27 -19
-54 -4 -27 -11 -52 -15 -55 -5 -3 -2 -18 6 -34 8 -16 15 -38 15 -50 0 -15 6
-20 25 -20 22 0 25 4 25 35 0 43 26 59 47 29 55 -77 98 -95 105 -44 3 20 0 30
-8 30 -7 0 -22 12 -34 27 l-21 27 27 21 c21 17 28 32 32 73 7 76 -2 82 -113
82 -88 0 -93 -1 -99 -22z m154 -61 c0 -17 -10 -28 -35 -40 -50 -24 -55 -22
-55 23 l0 40 45 0 c40 0 45 -2 45 -23z"/>
<path d="M2757 443 c-16 -4 -17 -17 -15 -136 l3 -132 110 0 110 0 0 135 0 135
-73 3 c-46 2 -79 -2 -88 -9 -10 -8 -14 -8 -14 0 0 11 -3 12 -33 4z m163 -133
l0 -80 -65 0 -65 0 0 80 0 80 65 0 65 0 0 -80z"/>
<path d="M3020 436 c0 -8 -3 -21 -6 -30 -5 -13 1 -16 32 -16 22 0 34 -4 28 -8
-7 -4 -13 -43 -15 -91 -4 -76 -6 -85 -32 -105 -26 -21 -36 -59 -19 -70 4 -2
26 4 49 14 54 24 63 54 63 201 l0 119 -50 0 c-36 0 -50 -4 -50 -14z"/>
<path d="M3150 420 c0 -26 4 -30 28 -31 15 0 21 -3 15 -6 -7 -2 -13 -11 -13
-18 0 -7 -7 -15 -15 -19 -8 -3 -15 -14 -15 -25 0 -10 7 -21 15 -25 20 -7 20
-72 -1 -84 -11 -6 -13 -16 -8 -36 6 -26 10 -28 43 -22 20 3 66 8 104 12 52 5
67 10 67 23 -1 37 -16 44 -79 38 l-61 -7 0 40 0 40 44 0 c38 0 44 3 48 25 5
22 2 24 -41 27 -34 2 -47 7 -49 21 -3 15 5 17 57 17 l61 0 0 30 0 30 -100 0
-100 0 0 -30z"/>
<path d="M3406 428 c-9 -35 -8 -38 16 -38 l22 0 -21 -15 c-24 -17 -34 -66 -21
-111 26 -94 128 -130 202 -71 25 21 26 23 11 45 l-16 22 -26 -20 c-35 -27 -65
-25 -97 6 -29 29 -34 75 -14 119 10 22 17 25 59 25 26 0 51 -4 54 -10 3 -5 17
-10 31 -10 31 0 31 24 -1 55 -22 23 -32 25 -108 25 -79 0 -85 -1 -91 -22z"/>
<path d="M3660 436 c0 -8 -3 -21 -6 -30 -5 -13 2 -16 37 -17 24 0 38 -3 32 -6
-20 -7 -17 -172 3 -201 21 -31 50 -28 59 5 4 17 2 29 -4 31 -7 2 -11 37 -11
88 l0 84 34 0 c30 0 34 3 38 30 l5 30 -94 0 c-74 0 -93 -3 -93 -14z"/>
<path d="M3876 434 c-11 -28 -7 -44 11 -44 13 0 14 -3 5 -12 -10 -10 2 -27 55
-80 l67 -68 -41 0 c-23 0 -44 4 -48 10 -6 10 -55 -7 -55 -19 0 -4 7 -17 16
-29 13 -19 24 -22 89 -22 65 0 76 3 89 22 9 12 16 29 16 36 0 8 -33 48 -72 89
l-73 76 63 -6 c69 -7 84 3 62 42 -9 19 -20 21 -94 21 -67 0 -85 -3 -90 -16z"/>
<path d="M1526 222 c-24 -26 -25 -30 -11 -42 13 -11 20 -9 45 15 23 22 27 32
19 42 -16 18 -22 17 -53 -15z"/>
</g>
</svg>
